<?xml version="1.0" standalone="no"?>
<!DOCTYPE svg PUBLIC "-//W3C//DTD SVG 20010904//EN"
 "http://www.w3.org/TR/2001/REC-SVG-20010904/DTD/svg10.dtd">
<svg version="1.0" xmlns="http://www.w3.org/2000/svg"
 width="640.000000pt" height="640.000000pt" viewBox="0 0 640.000000 640.000000"
 preserveAspectRatio="xMidYMid meet">

<g transform="translate(0.000000,640.000000) scale(0.100000,-0.100000)"
fill="#000000" stroke="none">
<path d="M1304 3769 c-19 -21 -23 -21 -246 -14 l-227 7 -24 -24 c-15 -15 -28
-47 -37 -86 -14 -68 -10 -83 15 -58 9 9 24 17 33 17 28 3 86 -2 91 -6 6 -7
-18 -134 -69 -368 -37 -169 -42 -200 -29 -208 20 -12 249 -12 249 1 0 6 -5 10
-10 10 -6 0 -15 10 -21 23 -8 18 2 72 50 262 33 132 64 252 70 267 10 26 14
27 82 30 l72 3 23 60 c26 69 30 105 11 105 -8 0 -22 -10 -33 -21z"/>
<path d="M1818 3738 c20 -20 14 -68 -28 -240 -23 -89 -52 -209 -66 -266 -14
-57 -27 -125 -27 -150 l-2 -47 108 -3 108 -3 -7 52 c-9 69 22 196 53 216 31
20 66 13 80 -18 11 -22 9 -39 -13 -111 -19 -66 -22 -91 -15 -111 10 -27 12
-27 108 -27 l98 0 1 68 c0 37 11 102 22 145 12 42 22 88 22 102 0 32 -36 65
-71 65 -50 0 -43 20 31 95 94 95 92 105 -28 105 -49 0 -91 -3 -95 -6 -3 -3 -1
-14 6 -25 17 -27 -13 -82 -64 -119 -23 -16 -46 -30 -51 -30 -14 0 -9 42 22
163 41 159 42 157 -97 157 -83 0 -104 -3 -95 -12z"/>
<path d="M5260 3745 c0 -3 5 -13 11 -23 8 -13 1 -58 -31 -192 -93 -388 -111
-472 -106 -486 4 -11 30 -14 117 -14 111 0 111 0 103 23 -20 57 5 197 43 239
21 23 55 23 76 0 22 -24 21 -45 -4 -119 -11 -34 -19 -79 -17 -100 l3 -38 101
-3 101 -3 1 58 c0 32 10 94 21 138 36 139 23 185 -51 185 -40 0 -36 24 15 75
99 100 103 105 87 115 -15 10 -190 14 -190 5 0 -3 5 -14 11 -24 10 -14 8 -26
-10 -58 -25 -44 -99 -99 -114 -84 -6 6 3 59 23 135 45 178 48 170 -82 174 -60
1 -108 0 -108 -3z"/>
<path d="M4765 3623 c-22 -2 -45 -9 -51 -14 -17 -14 -24 -59 -13 -86 8 -22 13
-23 108 -23 108 0 119 -6 101 -55 -9 -25 -12 -25 -118 -25 -97 0 -113 -3 -143
-23 -71 -48 -133 -202 -110 -278 16 -52 68 -83 137 -83 49 0 124 28 124 46 0
17 32 7 37 -12 5 -18 14 -20 97 -21 50 0 102 -2 115 -5 20 -4 23 -1 16 18 -3
13 -9 32 -12 44 -2 11 12 80 31 153 47 170 58 253 45 308 -6 23 -18 45 -28 48
-20 8 -282 15 -336 8z m117 -346 c-2 -27 -7 -60 -12 -73 -20 -51 -120 -15
-120 44 0 13 13 37 30 53 24 25 37 30 67 27 l38 -3 -3 -48z"/>
<path d="M3730 3615 c0 -4 4 -14 9 -24 10 -17 -4 -99 -59 -361 -23 -108 -25
-171 -8 -188 15 -15 198 -17 198 -2 0 5 -5 21 -12 35 -9 21 -5 53 27 195 41
183 55 210 105 210 53 0 53 -20 5 -214 -58 -233 -60 -226 80 -226 79 0 105 3
105 13 0 7 -5 18 -10 23 -17 17 54 348 81 380 29 35 81 39 93 7 3 -8 -12 -89
-35 -181 -22 -92 -38 -183 -37 -202 l3 -35 108 -3 c100 -2 127 4 96 24 -17 10
-4 99 37 254 65 241 66 270 12 289 -40 14 -138 14 -175 0 -15 -5 -40 -22 -55
-36 -15 -15 -29 -25 -31 -22 -2 2 -8 16 -14 31 -11 25 -16 27 -98 30 -99 3
-129 -2 -160 -32 l-23 -22 -14 29 c-13 28 -14 28 -121 31 -59 1 -107 0 -107
-3z"/>
<path d="M1370 3595 c-99 -31 -162 -121 -195 -281 -19 -92 -23 -221 -7 -251
23 -43 86 -56 249 -51 151 4 184 12 198 45 15 37 43 148 39 152 -2 3 -17 -8
-32 -22 -26 -25 -34 -27 -118 -27 -116 0 -136 12 -132 78 l3 47 130 2 c160 3
171 6 190 43 61 118 28 242 -72 269 -53 15 -199 12 -253 -4z m156 -140 c37
-56 -11 -83 -120 -66 -4 0 -5 13 -2 29 15 60 91 84 122 37z"/>
<path d="M2365 3590 c23 -25 20 -42 -45 -285 -32 -118 -50 -204 -48 -230 l3
-40 109 -3 108 -3 -7 28 c-12 44 -6 96 25 219 37 146 64 198 106 202 61 6 62
-11 15 -201 -24 -95 -41 -188 -39 -207 l3 -35 113 -3 c93 -2 112 0 112 12 0 8
-4 18 -10 21 -18 11 -10 76 29 233 64 252 64 266 8 296 -48 26 -170 20 -213
-11 l-31 -22 -21 24 c-21 24 -28 25 -128 25 -106 0 -107 0 -89 -20z"/>
</g>
</svg>
